<svg xmlns="http://www.w3.org/2000/svg" viewBox="0 0 1024 1024" fill="none">
  <defs>
    <linearGradient id="bg" x1="0" y1="0" x2="1024" y2="1024" gradientUnits="userSpaceOnUse">
      <stop offset="0" stop-color="#2E3342"/>
      <stop offset="0.5" stop-color="#1F2433"/>
      <stop offset="1" stop-color="#2C3040"/>
    </linearGradient>
    <radialGradient id="glow" cx="0" cy="0" r="1" gradientTransform="translate(512 512) rotate(90) scale(360 360)" gradientUnits="userSpaceOnUse">
      <stop stop-color="#7E82A0" stop-opacity="0.52"/>
      <stop offset="1" stop-color="#7E82A0" stop-opacity="0"/>
    </radialGradient>
    <linearGradient id="dot" x1="0" y1="0" x2="1" y2="1">
      <stop offset="0" stop-color="#1A2758"/>
      <stop offset="1" stop-color="#0C1229"/>
    </linearGradient>
    <filter id="soft" x="-20%" y="-20%" width="140%" height="140%">
      <feDropShadow dx="0" dy="1" stdDeviation="1.2" flood-color="#0A0F22" flood-opacity="0.65"/>
    </filter>
  </defs>

  <rect width="1024" height="1024" fill="url(#bg)"/>
  <rect width="1024" height="1024" fill="url(#glow)"/>

  <g filter="url(#soft)" fill="url(#dot)" stroke="#0A1022" stroke-width="2">
    <circle cx="512" cy="146" r="28"/>

    <circle cx="420" cy="228" r="37"/>
    <circle cx="604" cy="228" r="37"/>

    <circle cx="512" cy="312" r="54"/>

    <circle cx="326" cy="312" r="38"/>
    <circle cx="698" cy="312" r="38"/>

    <circle cx="232" cy="396" r="31"/>
    <circle cx="792" cy="396" r="31"/>

    <circle cx="420" cy="396" r="33"/>
    <circle cx="604" cy="396" r="33"/>

    <circle cx="512" cy="478" r="26"/>

    <circle cx="326" cy="478" r="54"/>
    <circle cx="698" cy="478" r="54"/>

    <circle cx="232" cy="566" r="37"/>
    <circle cx="792" cy="566" r="37"/>

    <circle cx="420" cy="566" r="26"/>
    <circle cx="604" cy="566" r="26"/>

    <circle cx="512" cy="650" r="57"/>

    <circle cx="326" cy="650" r="34"/>
    <circle cx="698" cy="650" r="34"/>

    <circle cx="232" cy="736" r="35"/>
    <circle cx="792" cy="736" r="35"/>

    <circle cx="420" cy="736" r="26"/>
    <circle cx="604" cy="736" r="26"/>

    <circle cx="512" cy="820" r="55"/>

    <circle cx="326" cy="820" r="25"/>
    <circle cx="698" cy="820" r="25"/>

    <circle cx="232" cy="896" r="30"/>
    <circle cx="792" cy="896" r="30"/>

    <circle cx="420" cy="896" r="31"/>
    <circle cx="604" cy="896" r="31"/>

    <circle cx="512" cy="972" r="29"/>
  </g>
</svg>
